<svg xmlns="http://www.w3.org/2000/svg" width="517" height="200" viewBox="0 0 517 200">
    <g fill="none" fill-rule="evenodd">
        <g>
            <g>
                <path fill="#E30613" d="M285.589.933l42.969.007v127.7l-7.13-10.63h-37.9V4.02l-46.553 69.725.217.327 28.081 42.426c-1.8-.205-3.667-.308-5.59-.308-6.383 0-12.319 1.176-17.638 3.481-5.3 2.287-9.94 5.488-13.794 9.51-1.437 1.493-2.753 3.099-3.957 4.816l-13.383-20.224-.33-.497-42.359 63.45.014-39.96-66.67 61.063 27.13-50.503H0v-45.03h138.283v27.184l29.94-55.728v22.914l16.19-22.923L138.285 4.05l-.003-.003v41.914H0V.94h188.79l22.02 33.27L233.023.94l50.505-.007h2.06zm93.71.007v117.257h-38.104l-1.7 2.538-5.226 7.85V.94h45.03zm50.741 0v117.565c-4.013-1.53-8.38-2.314-13-2.314-5.824 0-11.115 1.306-15.725 3.873-.486.27-.971.56-1.447.849v-2.716h-14.857V.94h45.03zM138.284 51.637v45.029H0V51.637h138.284z" transform="translate(-317 -490) translate(317 490)"/>
                <path fill="#000" d="M259.684 121.906c6.292 0 11.773 1.216 16.443 3.646 4.669 2.43 8.506 5.697 11.51 9.794 3.003 4.1 5.17 8.771 6.505 14.011 1.334 5.245 1.81 10.725 1.43 16.444H242.24c.287 6.577 1.952 11.345 5.004 14.298 3.05 2.956 7.435 4.432 13.155 4.432 4.096 0 7.626-1.023 10.58-3.074 2.954-2.049 4.765-4.218 5.434-6.505h17.872c-2.859 8.865-7.245 15.205-13.154 19.016-5.912 3.813-13.061 5.72-21.447 5.72-5.816 0-11.059-.93-15.728-2.79-4.672-1.858-8.628-4.502-11.868-7.934-3.241-3.432-5.743-7.529-7.505-12.297-1.766-4.765-2.645-10.008-2.645-15.727 0-5.528.903-10.674 2.716-15.442 1.81-4.766 4.382-8.887 7.72-12.368 3.336-3.478 7.315-6.22 11.94-8.221 4.621-2.002 9.744-3.003 15.37-3.003zm248.5 59.148c4.646 0 8.344 3.725 8.344 8.38 0 4.736-3.698 8.42-8.378 8.42-4.648 0-8.421-3.684-8.421-8.42 0-4.655 3.773-8.38 8.42-8.38zm-189.811-57.146l13.01 19.302 12.869-19.302h22.447l-24.306 34.6 27.309 39.32h-23.164l-15.441-23.306-15.441 23.306H292.92l26.594-38.89-24.307-35.03h23.165zm142.56-2.002c3.907 0 7.528.478 10.865 1.43 3.336.955 6.195 2.48 8.58 4.575 2.381 2.098 4.24 4.839 5.576 8.222 1.334 3.385 2 7.46 2 12.224v49.471h-20.302v-41.893c0-2.477-.095-4.811-.286-7.006-.192-2.19-.715-4.097-1.572-5.72-.858-1.619-2.122-2.906-3.79-3.86-1.669-.951-3.931-1.43-6.79-1.43-2.861 0-5.173.55-6.936 1.644-1.765 1.098-3.146 2.528-4.146 4.29-1.001 1.765-1.669 3.767-2.001 6.006-.335 2.24-.501 4.504-.501 6.79v41.18h-20.303v-41.464c0-2.192-.05-4.361-.143-6.506-.096-2.146-.5-4.121-1.216-5.934-.715-1.81-1.908-3.264-3.574-4.362-1.669-1.093-4.124-1.643-7.364-1.643-.954 0-2.216.214-3.789.644-1.572.428-3.098 1.24-4.576 2.43-1.479 1.193-2.74 2.909-3.789 5.147-1.05 2.242-1.572 5.172-1.572 8.793v42.894H375v-73.92h19.16v10.01h.285c2.668-3.813 5.885-6.768 9.651-8.866 3.765-2.096 8.078-3.146 12.94-3.146 4.67 0 8.937.907 12.796 2.717 3.861 1.811 6.793 5.004 8.795 9.579 2.19-3.24 5.169-6.098 8.936-8.579 3.764-2.477 8.22-3.717 13.368-3.717zm47.25 60.45h-.033c-3.74 0-6.8 3.17-6.8 7.077 0 3.99 3.06 7.117 6.833 7.117 3.773.041 6.799-3.127 6.799-7.076 0-3.948-3.026-7.118-6.799-7.118zm-.454 2.381c1.438 0 2.378.299 2.95.714.563.406.865 1.037.865 1.933 0 1.227-.831 1.974-1.848 2.272v.075c.832.15 1.395.896 1.588 2.274.218 1.45.445 2.015.596 2.314h-1.58c-.226-.299-.453-1.162-.646-2.39-.227-1.194-.823-1.633-2.034-1.633h-1.058v4.023h-1.514v-9.358l.53-.071c.624-.082 1.276-.153 2.151-.153zm-.075 1.161c-.487 0-.833.034-1.092.066v3.17h1.092c1.252 0 2.302-.448 2.302-1.6 0-.823-.596-1.636-2.302-1.636zm-248.542-48.693c-3.243 0-5.933.55-8.079 1.644-2.144 1.097-3.86 2.456-5.147 4.076-1.287 1.62-2.193 3.337-2.716 5.146-.525 1.812-.837 3.432-.93 4.86h33.03c-.955-5.146-2.646-9.053-5.077-11.723-2.43-2.667-6.125-4.003-11.08-4.003z" transform="translate(-317 -490) translate(317 490)"/>
            </g>
        </g>
    </g>
</svg>
