<?xml version="1.0" encoding="UTF-8" standalone="no"?>
<!DOCTYPE svg PUBLIC "-//W3C//DTD SVG 1.1//EN" "http://www.w3.org/Graphics/SVG/1.1/DTD/svg11.dtd">
<svg width="100%" height="100%" viewBox="0 0 517 200" version="1.1" xmlns="http://www.w3.org/2000/svg" xmlns:xlink="http://www.w3.org/1999/xlink" xml:space="preserve" xmlns:serif="http://www.serif.com/" style="fill-rule:evenodd;clip-rule:evenodd;stroke-linejoin:round;stroke-miterlimit:2;">
    <g id="Styleguide">
        <g id="Logos-and-icons">
            <g id="EXM-Logo-Reversed">
                <path id="Combined-Shape" d="M285.589,0.933L328.558,0.94L328.558,128.64L321.428,118.01L283.528,118.01L283.528,4.019L236.975,73.745L237.192,74.072L265.273,116.498C263.472,116.293 261.606,116.19 259.683,116.19C253.3,116.19 247.364,117.366 242.045,119.671C236.745,121.958 232.105,125.159 228.251,129.181C226.814,130.674 225.498,132.28 224.294,133.997L210.911,113.773L210.581,113.276L168.222,176.727L168.236,136.767L101.565,197.829L128.697,147.326L-0,147.326L-0,102.297L138.283,102.297L138.283,129.48L168.222,73.752L168.222,96.666L184.412,73.743L138.286,4.05L138.283,4.047L138.283,45.961L-0,45.961L-0,0.94L188.789,0.94L210.81,34.209L233.023,0.94L283.528,0.933L285.589,0.933ZM379.299,0.94L379.299,118.197L341.195,118.197L339.495,120.735L334.269,128.584L334.269,0.94L379.299,0.94ZM430.04,0.94L430.04,118.505C426.027,116.975 421.66,116.191 417.04,116.191C411.216,116.191 405.925,117.497 401.315,120.064C400.829,120.334 400.344,120.624 399.868,120.913L399.868,118.197L385.011,118.197L385.011,0.94L430.04,0.94ZM138.284,51.637L138.284,96.666L0,96.666L0,51.637L138.284,51.637Z" style="fill:white;"/>
                <path id="Combined-Shape1" serif:id="Combined-Shape" d="M259.684,121.906C265.976,121.906 271.457,123.122 276.127,125.552C280.796,127.982 284.633,131.249 287.637,135.346C290.64,139.446 292.808,144.117 294.142,149.357C295.476,154.602 295.953,160.082 295.572,165.801L242.24,165.801C242.527,172.378 244.192,177.146 247.244,180.099C250.293,183.055 254.679,184.531 260.399,184.531C264.495,184.531 268.025,183.508 270.98,181.457C273.933,179.408 275.744,177.239 276.413,174.952L294.285,174.952C291.426,183.817 287.04,190.157 281.131,193.968C275.219,197.781 268.07,199.687 259.684,199.687C253.868,199.687 248.625,198.759 243.956,196.899C239.284,195.04 235.328,192.396 232.088,188.964C228.847,185.532 226.345,181.435 224.583,176.667C222.817,171.902 221.938,166.659 221.938,160.94C221.938,155.412 222.841,150.266 224.654,145.498C226.463,140.732 229.036,136.611 232.375,133.13C235.71,129.652 239.689,126.911 244.314,124.909C248.935,122.907 254.058,121.906 259.684,121.906ZM508.183,181.054C512.83,181.054 516.528,184.779 516.528,189.433C516.528,194.17 512.83,197.853 508.15,197.853C503.502,197.853 499.729,194.17 499.729,189.433C499.729,184.779 503.502,181.054 508.15,181.054L508.183,181.054ZM318.373,123.908L331.383,143.21L344.252,123.908L366.699,123.908L342.393,158.508L369.702,197.828L346.538,197.828L331.097,174.522L315.656,197.828L292.921,197.828L319.515,158.939L295.208,123.908L318.373,123.908ZM460.932,121.906C464.84,121.906 468.461,122.384 471.798,123.337C475.134,124.291 477.993,125.816 480.378,127.911C482.759,130.009 484.618,132.75 485.954,136.133C487.288,139.518 487.955,143.592 487.955,148.357L487.955,197.828L467.652,197.828L467.652,155.935C467.652,153.458 467.557,151.124 467.366,148.929C467.174,146.738 466.651,144.832 465.794,143.21C464.936,141.59 463.672,140.303 462.005,139.35C460.335,138.398 458.073,137.92 455.213,137.92C452.353,137.92 450.041,138.47 448.278,139.563C446.513,140.661 445.132,142.091 444.132,143.853C443.131,145.618 442.463,147.62 442.131,149.859C441.796,152.1 441.63,154.363 441.63,156.649L441.63,197.828L421.327,197.828L421.327,156.365C421.327,154.173 421.277,152.004 421.184,149.859C421.088,147.713 420.684,145.738 419.968,143.925C419.253,142.116 418.06,140.661 416.394,139.563C414.725,138.47 412.27,137.92 409.03,137.92C408.076,137.92 406.814,138.134 405.241,138.564C403.669,138.992 402.143,139.803 400.665,140.994C399.186,142.187 397.924,143.903 396.876,146.141C395.827,148.383 395.304,151.313 395.304,154.934L395.304,197.828L375.001,197.828L375.001,123.908L394.161,123.908L394.161,133.917L394.446,133.917C397.114,130.105 400.331,127.15 404.097,125.052C407.862,122.956 412.175,121.906 417.038,121.906C421.707,121.906 425.974,122.813 429.833,124.623C433.694,126.434 436.626,129.627 438.628,134.202C440.819,130.962 443.797,128.104 447.564,125.623C451.328,123.146 455.785,121.906 460.932,121.906ZM508.183,182.356L508.15,182.356C504.41,182.356 501.351,185.526 501.351,189.433C501.351,193.423 504.41,196.55 508.183,196.55C511.956,196.591 514.982,193.423 514.982,189.474C514.982,185.526 511.956,182.356 508.183,182.356ZM507.729,184.737C509.167,184.737 510.107,185.036 510.679,185.451C511.242,185.857 511.544,186.488 511.544,187.384C511.544,188.611 510.713,189.358 509.696,189.656L509.696,189.731C510.528,189.88 511.091,190.627 511.284,192.005C511.502,193.456 511.729,194.02 511.88,194.319L510.3,194.319C510.074,194.02 509.847,193.157 509.654,191.93C509.427,190.735 508.831,190.296 507.62,190.296L506.562,190.296L506.562,194.319L505.048,194.319L505.048,184.961L505.579,184.89C506.202,184.808 506.854,184.737 507.729,184.737ZM507.654,185.898C507.167,185.898 506.821,185.932 506.562,185.964L506.562,189.134L507.654,189.134C508.906,189.134 509.956,188.686 509.956,187.533C509.956,186.711 509.36,185.898 507.654,185.898ZM259.112,137.205C255.869,137.205 253.179,137.754 251.033,138.849C248.889,139.946 247.173,141.305 245.886,142.925C244.599,144.546 243.693,146.262 243.17,148.071C242.645,149.883 242.333,151.503 242.24,152.932L275.27,152.932C274.315,147.785 272.624,143.878 270.193,141.208C267.763,138.541 264.068,137.205 259.112,137.205Z" style="fill:white;"/>
            </g>
        </g>
    </g>
</svg>
